name analog
datacolumns 19
datarows 42
range 0.68 0.7005
endheader
time	ground_force_vx	ground_force_vy	ground_force_vz	ground_force_px	ground_force_py	ground_force_pz	l_ground_force_vx	l_ground_force_vy	l_ground_force_vz	l_ground_force_px	l_ground_force_py	l_ground_force_pz	ground_torque_x	ground_torque_y	ground_torque_z	l_ground_torque_x	l_ground_torque_y	l_ground_torque_z
0.68	-0.0	-0.0	-0.0	-10.731297492980955	-0.880212664604187	-601.5093383789062	-0.0	-0.0	-0.0	-0.0	-0.0	-0.0	-0.0	-0.0	-0.0	-0.0	-0.0	-0.0
0.6805	-0.0	-0.0	-0.0	-9.954294204711914	-0.500853419303894	-601.613037109375	-0.0	-0.0	-0.0	-0.0	-0.0	-0.0	-0.0	-0.0	-0.0	-0.0	-0.0	-0.0
0.681	-0.0	-0.0	-0.0	-9.467747688293455	-1.043662428855896	-599.9048461914062	-0.0	-0.0	-0.0	-0.0	-0.0	-0.0	-0.0	-0.0	-0.0	-0.0	-0.0	-0.0
0.6815	-0.0	-0.0	-0.0	-9.289528846740724	-0.5606173276901245	-600.3035278320312	-0.0	-0.0	-0.0	-0.0	-0.0	-0.0	-0.0	-0.0	-0.0	-0.0	-0.0	-0.0
0.682	-0.0	-0.0	-0.0	-8.564208984375	-0.8913040161132812	-600.9080200195312	-0.0	-0.0	-0.0	-0.0	-0.0	-0.0	-0.0	-0.0	-0.0	-0.0	-0.0	-0.0
0.6825	-0.0	-0.0	-0.0	-8.360027313232422	-0.3941776156425476	-599.2916259765625	-0.0	-0.0	-0.0	-0.0	-0.0	-0.0	-0.0	-0.0	-0.0	-0.0	-0.0	-0.0
0.683	-0.0	-0.0	-0.0	-8.589896202087402	0.1283220946788787	-598.9877319335938	-0.0	-0.0	-0.0	-0.0	-0.0	-0.0	-0.0	-0.0	-0.0	-0.0	-0.0	-0.0
0.6835	-0.0	-0.0	-0.0	-9.138506889343262	0.471278041601181	-599.1432495117188	-0.0	-0.0	-0.0	-0.0	-0.0	-0.0	-0.0	-0.0	-0.0	-0.0	-0.0	-0.0
0.684	-0.0	-0.0	-0.0	-10.883682250976562	0.7517701387405396	-597.5282592773438	-0.0	-0.0	-0.0	-0.0	-0.0	-0.0	-0.0	-0.0	-0.0	-0.0	-0.0	-0.0
0.6845	-0.0	-0.0	-0.0	-12.37473964691162	1.094833493232727	-596.4198608398438	-0.0	-0.0	-0.0	-0.0	-0.0	-0.0	-0.0	-0.0	-0.0	-0.0	-0.0	-0.0
0.685	-0.0	-0.0	-0.0	-13.177672386169434	1.324245810508728	-597.1768798828125	-0.0	-0.0	-0.0	-0.0	-0.0	-0.0	-0.0	-0.0	-0.0	-0.0	-0.0	-0.0
0.6855	-0.0	-0.0	-0.0	-14.528862953186035	1.0441724061965942	-599.09375	-0.0	-0.0	-0.0	-0.0	-0.0	-0.0	-0.0	-0.0	-0.0	-0.0	-0.0	-0.0
0.686	-0.0	-0.0	-0.0	-15.80246925354004	1.8079402446746824	-602.2200927734375	-0.0	-0.0	-0.0	-0.0	-0.0	-0.0	-0.0	-0.0	-0.0	-0.0	-0.0	-0.0
0.6865	-0.0	-0.0	-0.0	-16.925888061523438	1.8596947193145752	-606.4576416015625	-0.0	-0.0	-0.0	-0.0	-0.0	-0.0	-0.0	-0.0	-0.0	-0.0	-0.0	-0.0
0.687	-0.0	-0.0	-0.0	-17.931312561035156	1.9878051280975344	-609.8485717773438	-0.0	-0.0	-0.0	-0.0	-0.0	-0.0	-0.0	-0.0	-0.0	-0.0	-0.0	-0.0
0.6875	-0.0	-0.0	-0.0	-19.003829956054688	1.8717384338378904	-614.0801391601562	-0.0	-0.0	-0.0	-0.0	-0.0	-0.0	-0.0	-0.0	-0.0	-0.0	-0.0	-0.0
0.6880000000000001	-0.0	-0.0	-0.0	-18.93777847290039	1.629474401473999	-618.771240234375	-0.0	-0.0	-0.0	-0.0	-0.0	-0.0	-0.0	-0.0	-0.0	-0.0	-0.0	-0.0
0.6885	-0.0	-0.0	-0.0	-18.734207153320312	0.9804344177246094	-623.8704223632812	-0.0	-0.0	-0.0	-0.0	-0.0	-0.0	-0.0	-0.0	-0.0	-0.0	-0.0	-0.0
0.6890000000000001	-0.0	-0.0	-0.0	-18.90168190002441	1.0304673910140991	-628.2637939453125	-0.0	-0.0	-0.0	-0.0	-0.0	-0.0	-0.0	-0.0	-0.0	-0.0	-0.0	-0.0
0.6895	-0.0	-0.0	-0.0	-18.15968513488769	0.8663507103919983	-632.8560791015625	-0.0	-0.0	-0.0	-0.0	-0.0	-0.0	-0.0	-0.0	-0.0	-0.0	-0.0	-0.0
0.6900000000000001	-0.0	-0.0	-0.0	-16.628582000732422	0.228071391582489	-637.0379028320312	-0.0	-0.0	-0.0	-0.0	-0.0	-0.0	-0.0	-0.0	-0.0	-0.0	-0.0	-0.0
0.6905	-0.0	-0.0	-0.0	-16.364988327026367	-0.0788605883717536	-641.079345703125	-0.0	-0.0	-0.0	-0.0	-0.0	-0.0	-0.0	-0.0	-0.0	-0.0	-0.0	-0.0
0.6910000000000001	-0.0	-0.0	-0.0	-14.838568687438965	-0.2625713050365448	-642.7874755859375	-0.0	-0.0	-0.0	-0.0	-0.0	-0.0	-0.0	-0.0	-0.0	-0.0	-0.0	-0.0
0.6915	-0.0	-0.0	-0.0	-13.728582382202148	-0.0494789704680442	-645.3577880859375	-0.0	-0.0	-0.0	-0.0	-0.0	-0.0	-0.0	-0.0	-0.0	-0.0	-0.0	-0.0
0.6920000000000001	-0.0	-0.0	-0.0	-13.178448677062988	0.1535763293504715	-647.8515014648438	-0.0	-0.0	-0.0	-0.0	-0.0	-0.0	-0.0	-0.0	-0.0	-0.0	-0.0	-0.0
0.6925	-0.0	-0.0	-0.0	-12.375627517700195	0.1782608032226562	-650.4599609375	-0.0	-0.0	-0.0	-0.0	-0.0	-0.0	-0.0	-0.0	-0.0	-0.0	-0.0	-0.0
0.6930000000000001	-0.0	-0.0	-0.0	-11.637386322021484	-0.0828819572925567	-649.9848022460938	-0.0	-0.0	-0.0	-0.0	-0.0	-0.0	-0.0	-0.0	-0.0	-0.0	-0.0	-0.0
0.6935	-0.0	-0.0	-0.0	-10.14547061920166	-0.1782608032226562	-649.7892456054688	-0.0	-0.0	-0.0	-0.0	-0.0	-0.0	-0.0	-0.0	-0.0	-0.0	-0.0	-0.0
0.6940000000000001	-0.0	-0.0	-0.0	-9.496588706970217	0.0402387380599975	-649.144775390625	-0.0	-0.0	-0.0	-0.0	-0.0	-0.0	-0.0	-0.0	-0.0	-0.0	-0.0	-0.0
0.6945	-0.0	-0.0	-0.0	-8.596054077148438	-0.3724300265312195	-645.1630859375	-0.0	-0.0	-0.0	-0.0	-0.0	-0.0	-0.0	-0.0	-0.0	-0.0	-0.0	-0.0
0.6950000000000001	-0.0	-0.0	-0.0	-7.720816612243652	0.0647958517074585	-643.9747924804688	-0.0	-0.0	-0.0	-0.0	-0.0	-0.0	-0.0	-0.0	-0.0	-0.0	-0.0	-0.0
0.6955	-0.0	-0.0	-0.0	-7.177415370941162	0.3402796685695648	-641.1178588867188	-0.0	-0.0	-0.0	-0.0	-0.0	-0.0	-0.0	-0.0	-0.0	-0.0	-0.0	-0.0
0.6960000000000001	-0.0	-0.0	-0.0	-6.179788589477539	0.4050047993659973	-635.3396606445312	-0.0	-0.0	-0.0	-0.0	-0.0	-0.0	-0.0	-0.0	-0.0	-0.0	-0.0	-0.0
0.6965	-0.0	-0.0	-0.0	-4.728157043457031	0.6556264758110046	-628.2412719726562	-0.0	-0.0	-0.0	-0.0	-0.0	-0.0	-0.0	-0.0	-0.0	-0.0	-0.0	-0.0
0.6970000000000001	-0.0	-0.0	-0.0	-3.884355783462525	0.8597831726074219	-624.13525390625	-0.0	-0.0	-0.0	-0.0	-0.0	-0.0	-0.0	-0.0	-0.0	-0.0	-0.0	-0.0
0.6975	-0.0	-0.0	-0.0	-2.9368221759796143	0.8913040161132812	-617.26318359375	-0.0	-0.0	-0.0	-0.0	-0.0	-0.0	-0.0	-0.0	-0.0	-0.0	-0.0	-0.0
0.6980000000000001	-0.0	-0.0	-0.0	-1.9695155620574951	1.1278148889541626	-609.88720703125	-0.0	-0.0	-0.0	-0.0	-0.0	-0.0	-0.0	-0.0	-0.0	-0.0	-0.0	-0.0
0.6985	-0.0	-0.0	-0.0	-1.588536500930786	1.436596393585205	-602.4716796875	-0.0	-0.0	-0.0	-0.0	-0.0	-0.0	-0.0	-0.0	-0.0	-0.0	-0.0	-0.0
0.6990000000000001	-0.0	-0.0	-0.0	-1.022699952125549	1.0282176733016968	-594.238037109375	-0.0	-0.0	-0.0	-0.0	-0.0	-0.0	-0.0	-0.0	-0.0	-0.0	-0.0	-0.0
0.6995	-0.0	-0.0	-0.0	-0.9398552179336548	1.063280701637268	-586.2537841796875	-0.0	-0.0	-0.0	-0.0	-0.0	-0.0	-0.0	-0.0	-0.0	-0.0	-0.0	-0.0
0.7000000000000001	-0.0	-0.0	-0.0	-0.6660431027412415	0.4633851051330566	-577.6840209960938	-0.0	-0.0	-0.0	-0.0	-0.0	-0.0	-0.0	-0.0	-0.0	-0.0	-0.0	-0.0
0.7005	-0.0	-0.0	-0.0	0.0359351634979248	0.005774863064289	-570.1035766601562	-0.0	-0.0	-0.0	-0.0	-0.0	-0.0	-0.0	-0.0	-0.0	-0.0	-0.0	-0.0
